<svg xmlns="http://www.w3.org/2000/svg" width="533" height="191" viewBox="0 0 533.5 191.4"><style>.a{fill:#5C543E;}</style><circle cx="89.9" cy="94.1" r="86.4" fill="#FFF"/><path d="M86.1 15.9c-37.1 0-67.1 30-67.1 67.1 0 37.1 30 67.1 67.1 67.1 37.1 0 67.1-30 67.1-67.1C153.2 45.9 123.1 15.9 86.1 15.9zM64.3 70.9c-11.4 0-20.6-9.2-20.6-20.6 0-11.4 9.2-20.6 20.6-20.6s20.6 9.2 20.6 20.6C84.9 61.7 75.7 70.9 64.3 70.9z" fill="#E5D0B7"/><path d="M214.5 28.1l0.7-2.6c5.5-0.5 10.2-1.3 14.1-2.3 -0.9 2.7-1.9 6.1-3 10.4l-4.3 16 5.2 0.3c2.4 0.1 5.1-0.5 7.9-1.8 2.9-1.3 5.4-3.7 7.7-7 2.3-3.3 3.4-6.9 3.4-10.8 0-3.8-1.4-6.9-4.1-9.1 -2.7-2.2-6.9-3.4-12.6-3.4 -6.4 0-12.7 1.6-18.9 4.8 -6.2 3.2-10.9 7.3-14.3 12.3 -3.3 5-5 9.9-5 14.7 0 2.4 0.4 4.5 1.3 6.2 0.9 1.8 2.4 3.5 4.7 5.2 1.9 1.4 2.8 2.7 2.8 4 0 0.8-0.3 1.5-0.9 2.1 -0.6 0.6-1.3 0.9-2.2 0.9 -2.2 0-4.4-1.5-6.5-4.6 -2.1-3.1-3.1-7-3.1-11.6 0-8.6 3.3-16.4 9.9-23.5 8.6-9.3 20.2-14 34.8-14 5.5 0 10.1 0.7 13.6 2.2 3.5 1.4 6.2 3.4 8 5.9 1.8 2.5 2.6 5.2 2.6 8.1 0 3.7-1.2 7.4-3.7 10.9 -2.5 3.6-6.1 6.5-10.9 8.7 -4.8 2.2-10.2 3.3-16.1 3.3 -0.9 0-2.3-0.1-4.2-0.2l-4.6 17.7c-0.8 3-1.6 5.9-2.6 8.9 3 0.7 5.5 1.1 7.7 1.1 2.8 0 5.7-0.5 8.9-1.6l-0.7 3.2c-3 0.8-5.4 1.2-7.5 1.2 -2 0-4.8-0.2-8.6-0.6 -3-0.4-5.5-0.6-7.4-0.6 -3.7 0-7.4 0.4-11.3 1.3l0.7-3c3.9-0.6 6.6-1.6 8.1-2.8 2-1.7 3.7-5.1 5-10.3l8.6-34c0.4-1.6 0.6-2.7 0.6-3.4 0-0.6-0.2-1.1-0.7-1.6 -0.5-0.5-1.1-0.7-1.8-0.7C215.4 28 215 28 214.5 28.1z" class="a"/><path d="M281.4 68.2l1.9 2.5c-9.3 8.8-17.2 13.2-23.9 13.2 -2.7 0-4.7-0.9-6.2-2.7 -1.4-1.8-2.1-4.7-2.1-8.7 0-8.1 2.5-16.2 7.4-24.2 5.5-9.1 12.1-13.7 19.8-13.7 2.7 0 4.7 0.7 6.2 2 1.4 1.3 2.1 3.2 2.1 5.5 0 2.5-0.9 4.9-2.6 7.3 -1.7 2.4-4.8 4.9-9.1 7.4 -2.2 1.2-6.9 3.5-14.1 6.8 -0.3 2-0.5 4-0.5 5.9 0 2.7 0.4 4.6 1.3 5.6 0.9 1.1 2.1 1.6 3.7 1.6 1.6 0 3.3-0.4 5.1-1.3C272.9 74.2 276.6 71.8 281.4 68.2zM261.5 59.9c6.1-2.7 10.7-5.7 13.8-8.8 2.1-2.2 3.1-4.4 3.1-6.5 0-1.6-0.4-2.9-1.3-3.9 -0.9-1-2-1.4-3.3-1.4 -1.4 0-2.8 0.5-4.1 1.6 -1.8 1.4-3.3 3.5-4.5 6.4C263.4 51.4 262.2 55.6 261.5 59.9z" class="a"/><path d="M329.9 33.7l3.7-0.8 -4.3 14.4c-1.7 5.7-3.3 12.3-4.8 19.8 -0.8 4.1-1.2 6.7-1.2 7.8 0 1.2 0.5 1.8 1.4 1.8 0.6 0 1.6-0.4 2.9-1.2 2.3-1.4 4.6-3.1 6.8-5.2l1.8 2.2c-4.3 3.9-7.1 6.3-8.3 7.2 -2.4 1.7-4.7 2.9-6.9 3.7 -1.4 0.5-2.8 0.8-4.2 0.8 -1 0-1.7-0.2-2.2-0.7 -0.5-0.5-0.7-1.1-0.7-2 0-0.6 0.1-1.3 0.5-2.3l2.3-7.7c-3.3 3.9-7.1 7.3-11.6 10.1 -2.8 1.7-5.3 2.6-7.6 2.6 -2.2 0-3.9-0.8-5.1-2.3 -1.6-2.1-2.4-4.8-2.4-8.2 0-4 1.1-8.5 3.2-13.4 2.1-4.9 5-9.4 8.6-13.4 3.6-4 7.4-7 11.4-8.9 3.1-1.4 7-2.2 11.8-2.2 1.2 0 2.4 0.1 3.7 0.2L329.9 33.7zM322.9 42.4c-2-0.4-3.8-0.6-5.2-0.6 -3.4 0-6.4 0.9-8.9 2.8 -2.5 1.9-4.9 5.2-7.1 10.1 -2.2 4.9-3.3 9.7-3.3 14.6 0 2.6 0.4 4.4 1.3 5.6 0.9 1.1 2 1.7 3.4 1.7 2.6 0 5.4-1.4 8.4-4.2 3-2.8 5.2-6.9 6.6-12.2L322.9 42.4z" class="a"/><path d="M350.5 82.4h-8.5l4-15.3c1.9-7.5 3.6-14.6 5.1-21.4 0.3-1.7 0.5-2.7 0.5-3.1 0-0.9-0.4-1.4-1.2-1.4 -0.6 0-1.4 0.4-2.6 1.2 -1.2 0.8-3.3 2.7-6.4 5.8l-1.8-2c3.6-3.9 7.3-6.8 10.9-8.8 3.6-2 6.4-2.9 8.3-2.9 0.7 0 1.2 0.2 1.6 0.5 0.4 0.3 0.6 0.7 0.6 1.2 0 0.5-0.2 1.8-0.7 3.9l-2.5 10.2c3.8-6 8.2-11.2 13-15.5 2.3-2.1 4.3-3.1 5.8-3.1 1.1 0 2.1 0.4 2.8 1.1 0.8 0.7 1.1 1.6 1.1 2.6 0 1-0.4 1.9-1.1 2.6 -0.7 0.7-2.6 1.6-5.5 2.6 -2.8 0.9-5.1 2.1-6.8 3.4 -1.8 1.3-3.7 3.4-5.8 6.1 -2.1 2.7-3.6 5.1-4.4 7.1 -0.8 2-2.1 6.7-3.8 14.1L350.5 82.4z" class="a"/><path d="M398.5 68.8l1.9 2c-3 3.3-6.4 6.4-10.5 9.1 -4 2.7-7.4 4.1-10 4.1 -1.2 0-2.1-0.4-2.9-1.3 -0.8-0.9-1.1-2.1-1.1-3.7 0-3 1.2-9.3 3.5-18.9l6.1-24.9c2.2-9 4.1-15.1 5.6-18.1 2.3-4.6 5.7-8.2 10-10.8 4.3-2.6 8.8-3.8 13.6-3.8 1.6 0 2.9 0.4 3.8 1.2 0.9 0.8 1.4 1.7 1.4 2.8 0 1.2-0.5 2.2-1.4 3 -0.9 0.8-2.2 1.2-4 1.2 -1.1 0-2.7-0.2-4.8-0.6 -1.8-0.3-3.5-0.5-5-0.5s-2.7 0.3-3.5 1c-1.1 0.9-2.1 2.8-3 5.7 -0.9 2.9-2.3 8.6-4.3 17.2l-5.7 23.8c-2.8 11.9-4.2 18.2-4.2 18.7 0 1.2 0.4 1.8 1.3 1.8 0.8 0 2-0.5 3.6-1.5C392.2 74.3 395.4 71.8 398.5 68.8z" class="a"/><path d="M272.6 104.7l0.7-2.8c4.3-0.3 9-1.1 14-2.3 -1.3 3.9-2.3 7.1-2.9 9.4l-3.1 12.7c6.7 0 11.7-1.7 15.1-5 3.4-3.4 5.1-7.3 5.1-12 0-3.2-1.2-5.8-3.7-7.8 -2.4-2-6.1-3-10.9-3 -6.9 0-13.4 1.6-19.6 4.9 -6.2 3.3-11.1 7.5-14.5 12.8 -3.5 5.3-5.2 10.5-5.2 15.8 0 1.4 0.2 2.8 0.6 4 0.4 1.2 1 2.4 1.7 3.4 0.5 0.6 1.5 1.4 3 2.5 1.7 1.2 2.8 2.1 3.2 2.7s0.6 1.3 0.6 2.1c0 0.8-0.3 1.5-0.9 2.1 -0.6 0.6-1.3 0.9-2.1 0.9 -2.2 0-4.3-1.6-6.6-4.7 -2.2-3.1-3.3-7-3.3-11.7 0-6.4 1.9-12.5 5.7-18.5 3.8-6 9.2-10.8 16.2-14.4 7-3.6 14.6-5.4 23-5.4 6.8 0 12 1.3 15.5 4 3.5 2.7 5.3 6 5.3 9.8 0 3.7-1.2 7-3.6 10 -2.4 3-6 5.3-10.9 7 3.3 0.5 6 1.4 7.9 2.7 1.9 1.3 3.4 2.9 4.5 4.8 1 1.9 1.6 4.1 1.6 6.6 0 4.1-1.2 8-3.6 11.6 -2.4 3.7-5.9 6.7-10.6 9.1 -4.7 2.4-9.6 3.6-14.6 3.6 -1.5 0-4.6-0.2-9.5-0.5 -2.3-0.1-4.7-0.2-7.3-0.2 -3.9 0-7.3 0.3-10.3 0.9l0.9-3.1c4-0.2 6.8-1.2 8.5-2.9 1.7-1.7 3.3-5.4 4.7-11.1l8.4-33c0.3-1.4 0.5-2.5 0.5-3.2 0-0.6-0.2-1.1-0.7-1.5 -0.5-0.4-1.1-0.7-1.8-0.7C273.4 104.5 273 104.6 272.6 104.7zM280.4 125.2l-2.9 11.4c-1.5 5.9-2.9 10.5-4.2 13.7 -0.8 1.9-1.8 3.5-3.1 4.8 3.4 0.8 6.3 1.2 8.8 1.2 6.6 0 11.6-2 15-6.1 3.4-4.1 5.1-8.7 5.1-13.7 0-2.5-0.6-4.7-1.9-6.5 -1.3-1.8-2.9-3.1-5-3.8C290.1 125.5 286.2 125.2 280.4 125.2z" class="a"/><path d="M354.6 110.4l3.8-0.8 -4.3 14.4c-1.7 5.7-3.3 12.3-4.8 19.8 -0.8 4.1-1.2 6.7-1.2 7.8 0 1.2 0.5 1.8 1.4 1.8 0.6 0 1.6-0.4 2.9-1.2 2.3-1.4 4.6-3.1 6.8-5.2l1.8 2.2c-4.3 3.9-7.1 6.3-8.3 7.2 -2.4 1.7-4.7 2.9-6.9 3.7 -1.4 0.5-2.8 0.8-4.2 0.8 -1 0-1.7-0.2-2.2-0.7 -0.5-0.5-0.7-1.1-0.7-2 0-0.6 0.2-1.3 0.5-2.3l2.3-7.7c-3.3 3.9-7.1 7.3-11.6 10.1 -2.8 1.7-5.3 2.6-7.6 2.6 -2.2 0-3.9-0.8-5.1-2.3 -1.6-2.1-2.4-4.8-2.4-8.2 0-4 1.1-8.5 3.2-13.4 2.1-4.9 5-9.4 8.6-13.4 3.6-4 7.4-7 11.4-8.9 3.1-1.4 7-2.2 11.8-2.2 1.2 0 2.4 0.1 3.7 0.2L354.6 110.4zM347.5 119.1c-2-0.4-3.8-0.6-5.2-0.6 -3.4 0-6.4 0.9-8.9 2.8 -2.5 1.9-4.9 5.2-7.1 10.1 -2.2 4.9-3.3 9.7-3.3 14.6 0 2.6 0.4 4.4 1.3 5.6s2 1.7 3.4 1.7c2.6 0 5.4-1.4 8.4-4.2 3-2.8 5.2-6.9 6.6-12.2L347.5 119.1z" class="a"/><path d="M373.5 159.1h-8.5l7.4-31c3.6-15.4 6-24.8 7.1-28.4 1.1-3.6 2.5-6.5 4-8.8 1.6-2.3 3.5-4.4 5.9-6.2 2.4-1.8 4.9-3.2 7.7-4.2 2.7-1 5.2-1.5 7.2-1.5 2 0 3.4 0.4 4.4 1.1 1 0.8 1.4 1.8 1.4 3 0 1.1-0.4 2-1.3 2.7 -0.9 0.8-2 1.1-3.3 1.1 -1.7 0-4.2-0.3-7.5-0.9 -1.1-0.2-2.1-0.3-2.9-0.3 -1.2 0-2.3 0.4-3.3 1.3 -1 0.8-2 2.3-2.8 4.5 -0.8 2.1-2 6.6-3.4 13.4l-4.1 18.1c3.6-4.1 7.4-7.3 11.3-9.5 3-1.7 5.8-2.5 8.5-2.5 1.9 0 3.5 0.7 4.8 2.1 1.3 1.4 2 3.2 2 5.4 0 4.1-2.1 7.7-6.3 10.9 -4.2 3.2-10.6 4.9-19.3 5.1 2.9 1.3 5.2 2.7 7 4.2 1.7 1.5 3.5 3.7 5.1 6.4 1.7 2.7 3.9 7.3 6.5 13.6 3.1 7.6 6.1 12.6 8.8 15.1 2.7 2.5 5.6 3.8 8.8 3.8 1.9 0 3.4-0.4 4.6-1.2 1.2-0.8 1.8-1.6 1.8-2.5 0-0.5-0.2-1.2-0.6-2.2 -0.4-1-0.6-1.8-0.6-2.5 0-0.9 0.3-1.6 1-2.3 0.7-0.7 1.5-1 2.4-1 1.1 0 2 0.4 2.7 1.3 0.8 0.9 1.1 2 1.1 3.4 0 2.7-1.2 5.2-3.7 7.3s-5.8 3.2-9.8 3.2c-4.1 0-7.8-1-11.1-3.1 -3.3-2.1-6.3-5.4-9.1-10 -1.6-2.7-4.5-8.7-8.5-18.1 -1.9-4.5-3.6-7.8-5.1-10.1 -1.2-1.7-2.8-3.5-4.8-5.2L373.5 159.1zM379.5 132.2c5.1 0 9.2-0.5 12.4-1.5 3.1-1 5.4-2.4 6.7-4.1 1.3-1.7 2-3.6 2-5.6 0-1.4-0.4-2.6-1.2-3.5 -0.8-0.9-1.7-1.3-2.8-1.3 -3.6 0-9 4-16.3 11.9L379.5 132.2z" class="a"/><path d="M445.6 144.9l1.9 2.5c-9.3 8.8-17.2 13.2-23.9 13.2 -2.7 0-4.7-0.9-6.2-2.7 -1.4-1.8-2.1-4.7-2.1-8.7 0-8.1 2.5-16.2 7.4-24.2 5.5-9.1 12.1-13.7 19.8-13.7 2.7 0 4.7 0.7 6.2 2 1.4 1.3 2.1 3.2 2.1 5.5 0 2.5-0.9 4.9-2.6 7.3 -1.7 2.4-4.8 4.9-9.1 7.4 -2.2 1.2-6.9 3.5-14.1 6.8 -0.3 2-0.5 4-0.5 5.9 0 2.7 0.4 4.6 1.3 5.6 0.9 1.1 2.1 1.6 3.7 1.6 1.6 0 3.3-0.4 5.1-1.3C437.2 150.8 440.8 148.5 445.6 144.9zM425.8 136.6c6.1-2.7 10.7-5.7 13.8-8.8 2.1-2.2 3.1-4.4 3.1-6.5 0-1.6-0.4-2.9-1.3-3.9 -0.9-1-2-1.4-3.3-1.4 -1.4 0-2.8 0.5-4.1 1.6 -1.8 1.4-3.3 3.5-4.5 6.4C427.7 128.1 426.5 132.3 425.8 136.6z" class="a"/><path d="M465.9 159.1h-8.5l4-15.3c1.9-7.5 3.6-14.6 5.1-21.4 0.3-1.7 0.5-2.7 0.5-3.1 0-0.9-0.4-1.4-1.2-1.4 -0.6 0-1.4 0.4-2.6 1.2 -1.2 0.8-3.3 2.7-6.4 5.8l-1.8-2c3.6-3.9 7.3-6.8 10.9-8.8 3.6-1.9 6.4-2.9 8.3-2.9 0.7 0 1.2 0.2 1.6 0.5 0.4 0.3 0.6 0.7 0.6 1.2 0 0.5-0.2 1.8-0.7 3.9l-2.5 10.2c3.8-6 8.2-11.2 13-15.5 2.3-2.1 4.3-3.1 5.8-3.1 1.1 0 2.1 0.4 2.8 1.1 0.8 0.7 1.1 1.6 1.1 2.6 0 1-0.4 1.9-1.1 2.6 -0.7 0.7-2.6 1.6-5.5 2.6 -2.8 0.9-5.1 2.1-6.8 3.4 -1.8 1.3-3.7 3.4-5.8 6.1 -2.1 2.7-3.6 5.1-4.4 7.1 -0.8 2-2.1 6.7-3.8 14.1L465.9 159.1z" class="a"/><path d="M490.1 122.9l-1.8-2.7 4.2-2.8c4.1-2.8 7-4.6 8.6-5.4 0.9-0.5 1.8-0.7 2.6-0.7 0.8 0 1.6 0.5 2.3 1.4 3.3 4.2 6.1 9.9 8.4 17 2.3 7.1 3.4 14.1 3.4 20.8 0 0.9 0 2.2-0.1 4 6.4-11.8 9.6-21.1 9.6-28.1 0-1.4-0.3-3.4-1-5.7 -0.7-2.7-1-4.5-1-5.7 0-1.1 0.3-2 1.1-2.7 0.7-0.7 1.6-1.1 2.6-1.1 1.3 0 2.4 0.5 3.2 1.5 0.8 1 1.2 2.5 1.2 4.4 0 4.9-1.1 11-3.4 18.3 -2.2 7.3-5.7 15.1-10.5 23.5 -4.8 8.4-9.2 14.6-13.1 18.7 -4 4.1-7.8 7-11.5 8.8 -3.7 1.8-7.2 2.6-10.5 2.6 -2.5 0-4.4-0.5-5.7-1.4 -1.3-0.9-1.9-2-1.9-3.3 0-1.1 0.5-2.1 1.5-2.9 1-0.8 2.3-1.2 4-1.2 1.3 0 3 0.2 5.3 0.7 2.4 0.5 4 0.8 4.9 0.8 2.3 0 4.8-1 7.3-2.9 3.5-2.6 6.3-5.8 8.4-9.5 2.1-3.7 3.1-7.4 3.1-11.1 0-5.3-0.8-11.6-2.3-19s-3.7-13-6.5-16.9c-1.4-2-2.9-3-4.5-3C496.2 119.2 493.6 120.4 490.1 122.9z" class="a"/><path d="M91.2 6.1c-49.5 0-89.7 40.2-89.7 89.7s40.2 89.7 89.7 89.7c49.5 0 89.7-40.2 89.7-89.7S140.7 6.1 91.2 6.1zM86.2 161c-41.5 0-75.1-33.6-75.1-75.1 0-41.5 33.6-75.1 75.1-75.1 41.5 0 75.1 33.6 75.1 75.1C161.3 127.4 127.7 161 86.2 161z" fill="#B59E7E"/></svg>